<svg xmlns="http://www.w3.org/2000/svg" xmlns:xlink="http://www.w3.org/1999/xlink" width="92" height="91" viewBox="0 0 92 91">
  <defs>
    <clipPath id="clip-ig-icon">
      <rect width="92" height="91"/>
    </clipPath>
  </defs>
  <g id="ig-icon" clip-path="url(#clip-ig-icon)">
    <path id="Icon_akar-instagram-fill" data-name="Icon akar-instagram-fill" d="M31.1,4.442c4.887-.225,6.446-.275,18.9-.275s14.008.054,18.892.275A33.73,33.73,0,0,1,80.025,6.571a23.462,23.462,0,0,1,13.4,13.4A33.709,33.709,0,0,1,95.558,31.1c.225,4.9.275,6.454.275,18.9s-.054,14.008-.275,18.9a33.6,33.6,0,0,1-2.133,11.125,23.4,23.4,0,0,1-13.4,13.4A33.709,33.709,0,0,1,68.9,95.558c-4.892.225-6.45.275-18.9.275s-14.008-.054-18.9-.275a33.6,33.6,0,0,1-11.125-2.133,22.488,22.488,0,0,1-8.121-5.283,22.467,22.467,0,0,1-5.288-8.117A33.828,33.828,0,0,1,4.442,68.9C4.217,64,4.167,62.446,4.167,50s.054-14.008.275-18.892A33.73,33.73,0,0,1,6.571,19.975a22.483,22.483,0,0,1,5.292-8.117,22.467,22.467,0,0,1,8.113-5.288A33.828,33.828,0,0,1,31.1,4.442Zm37.417,8.25c-4.833-.221-6.283-.267-18.521-.267s-13.687.046-18.521.267a25.333,25.333,0,0,0-8.512,1.579A14.233,14.233,0,0,0,17.7,17.7a14.217,14.217,0,0,0-3.425,5.271,25.333,25.333,0,0,0-1.579,8.513c-.221,4.833-.267,6.283-.267,18.521s.046,13.688.267,18.521a25.333,25.333,0,0,0,1.579,8.512,15.136,15.136,0,0,0,8.7,8.7,25.333,25.333,0,0,0,8.513,1.579c4.833.221,6.279.267,18.521.267s13.688-.046,18.521-.267a25.332,25.332,0,0,0,8.512-1.579,15.137,15.137,0,0,0,8.7-8.7,25.333,25.333,0,0,0,1.579-8.512c.221-4.833.267-6.283.267-18.521s-.046-13.687-.267-18.521a25.332,25.332,0,0,0-1.579-8.512A14.232,14.232,0,0,0,82.3,17.7a14.221,14.221,0,0,0-5.271-3.425A25.333,25.333,0,0,0,68.521,12.692ZM44.146,64.129A15.292,15.292,0,1,0,34.711,50a15.287,15.287,0,0,0,9.434,14.128Zm-10.8-30.787a23.558,23.558,0,1,1,0,33.317A23.558,23.558,0,0,1,33.342,33.342ZM78.783,29.95a5.571,5.571,0,1,0-7.762-.113A5.571,5.571,0,0,0,78.783,29.95Z" transform="translate(-4.167 -4.667)"/>
  </g>
</svg>
